<svg xmlns="http://www.w3.org/2000/svg" xmlns:xlink="http://www.w3.org/1999/xlink" width="500" zoomAndPan="magnify" viewBox="0 0 375 149.999998" height="200" preserveAspectRatio="xMidYMid meet" version="1.0"><defs><g/><clipPath id="ea8d07dc01"><path d="M 15 6.71875 L 265.5 6.71875 L 265.5 125 L 15 125 Z M 15 6.71875 " clip-rule="nonzero"/></clipPath><clipPath id="dba15d280d"><path d="M 0.398438 8 L 22 8 L 22 28 L 0.398438 28 Z M 0.398438 8 " clip-rule="nonzero"/></clipPath><clipPath id="b3ee6aa25b"><rect x="0" width="217" y="0" height="36"/></clipPath><clipPath id="3b12a8b203"><rect x="0" width="124" y="0" height="36"/></clipPath></defs><g clip-path="url(#ea8d07dc01)"><path fill="#000000" d="M 131.234375 50.1875 C 124.355469 25.128906 101.445312 6.71875 74.21875 6.71875 C 41.820312 6.71875 15.496094 32.785156 15.109375 65.105469 L 28.660156 56.105469 C 33.132812 35.058594 51.828125 19.261719 74.21875 19.261719 C 99.945312 19.261719 120.789062 40.101562 120.789062 65.828125 C 120.789062 91.558594 99.945312 112.398438 74.21875 112.398438 C 52.421875 112.398438 34.140625 97.453125 29.046875 77.230469 L 73.027344 48.039062 L 112.925781 74.515625 L 112.925781 62.933594 L 101.1875 55.148438 L 101.1875 44.265625 L 91.386719 44.265625 L 91.386719 48.632812 L 73.027344 36.457031 L 27.648438 66.578125 L 15.730469 74.492188 C 19.917969 103.039062 44.507812 124.9375 74.21875 124.9375 C 101.445312 124.9375 124.355469 106.527344 131.234375 81.5 L 159.082031 81.5 L 163.191406 74.386719 L 167.253906 74.386719 L 167.253906 64.5625 L 168.648438 63.761719 L 170.019531 62.960938 L 171.414062 63.761719 L 172.8125 64.5625 L 172.8125 74.386719 L 188.171875 74.386719 L 188.171875 69.8125 L 189.566406 69.035156 L 190.9375 68.234375 L 192.332031 69.035156 L 193.703125 69.8125 L 193.703125 74.386719 L 205.960938 74.386719 L 205.960938 61.433594 L 207.355469 60.632812 L 208.726562 59.832031 L 210.125 60.632812 L 211.492188 61.433594 L 211.492188 74.386719 L 225.507812 74.386719 L 229.621094 81.5 L 242.859375 81.5 L 248.316406 70.40625 L 265.742188 70.535156 L 259.253906 59.261719 L 254.003906 50.1875 Z M 139.042969 57.398438 L 132.734375 57.398438 C 132.527344 56.082031 132.320312 54.789062 132.035156 53.519531 L 242.496094 53.519531 C 243.558594 53.519531 244.4375 54.402344 244.4375 55.460938 C 244.4375 56.519531 243.558594 57.398438 242.496094 57.398438 Z M 139.042969 57.398438 " fill-opacity="1" fill-rule="evenodd"/></g><path fill="#737373" d="M 112.925781 78.601562 L 73.027344 52.152344 L 32.589844 78.964844 L 73.027344 55.382812 Z M 83.191406 79.378906 L 83.191406 70.328125 L 74.140625 70.328125 L 74.140625 79.378906 Z M 71.761719 79.378906 L 71.761719 70.328125 L 62.738281 70.328125 L 62.738281 79.378906 Z M 71.761719 81.757812 L 62.738281 81.757812 L 62.738281 90.808594 L 71.761719 90.808594 Z M 74.140625 81.757812 L 74.140625 90.808594 L 83.191406 90.808594 L 83.191406 81.757812 Z M 74.140625 81.757812 " fill-opacity="1" fill-rule="evenodd"/><g transform="matrix(1, 0, 0, 1, 146, 73)"><g clip-path="url(#b3ee6aa25b)"><g clip-path="url(#dba15d280d)"><g fill="#be9d5d" fill-opacity="1"><g transform="translate(1.325078, 27.716608)"><g><path d="M 0.1875 0.09375 C 0 0.09375 -0.132812 0.0234375 -0.21875 -0.109375 C -0.3125 -0.242188 -0.359375 -0.398438 -0.359375 -0.578125 C -0.335938 -0.878906 -0.273438 -1.0625 -0.171875 -1.125 C -0.078125 -1.1875 0.0351562 -1.21875 0.171875 -1.21875 C 0.316406 -1.21875 0.410156 -1.21875 0.453125 -1.21875 C 1.066406 -1.21875 1.515625 -1.375 1.796875 -1.6875 C 2.078125 -2.007812 2.304688 -2.367188 2.484375 -2.765625 C 2.660156 -3.160156 2.78125 -3.425781 2.84375 -3.5625 L 8.171875 -16.203125 C 8.296875 -16.503906 8.359375 -16.742188 8.359375 -16.921875 C 8.359375 -17.285156 8.210938 -17.550781 7.921875 -17.71875 C 7.640625 -17.882812 7.242188 -18.015625 6.734375 -18.109375 C 6.390625 -18.171875 6.175781 -18.234375 6.09375 -18.296875 C 6.019531 -18.359375 5.984375 -18.53125 5.984375 -18.8125 C 5.984375 -19.0625 6.046875 -19.222656 6.171875 -19.296875 C 6.304688 -19.378906 6.515625 -19.421875 6.796875 -19.421875 C 7.816406 -19.421875 8.625 -19.34375 9.21875 -19.1875 C 9.820312 -19.039062 10.347656 -18.738281 10.796875 -18.28125 C 11.242188 -17.820312 11.660156 -17.128906 12.046875 -16.203125 L 17.171875 -3.5625 C 17.472656 -2.789062 17.765625 -2.210938 18.046875 -1.828125 C 18.335938 -1.441406 18.769531 -1.238281 19.34375 -1.21875 L 19.515625 -1.21875 C 19.722656 -1.21875 19.863281 -1.179688 19.9375 -1.109375 C 20.019531 -1.035156 20.070312 -0.859375 20.09375 -0.578125 C 20.09375 -0.398438 20.046875 -0.242188 19.953125 -0.109375 C 19.867188 0.0234375 19.734375 0.09375 19.546875 0.09375 C 18.242188 0.03125 17.128906 0 16.203125 0 C 14.972656 0 13.707031 0.03125 12.40625 0.09375 C 12.226562 0.09375 12.09375 0.0234375 12 -0.109375 C 11.90625 -0.242188 11.859375 -0.398438 11.859375 -0.578125 C 11.878906 -0.859375 11.929688 -1.035156 12.015625 -1.109375 C 12.097656 -1.179688 12.238281 -1.21875 12.4375 -1.21875 C 13.132812 -1.21875 13.625 -1.28125 13.90625 -1.40625 C 14.1875 -1.539062 14.328125 -1.785156 14.328125 -2.140625 C 14.328125 -2.398438 14.207031 -2.875 13.96875 -3.5625 L 12.9375 -6.09375 L 5.40625 -6.09375 C 4.894531 -4.832031 4.601562 -4.097656 4.53125 -3.890625 C 4.457031 -3.691406 4.421875 -3.582031 4.421875 -3.5625 C 4.179688 -2.789062 4.0625 -2.296875 4.0625 -2.078125 C 4.0625 -1.734375 4.210938 -1.503906 4.515625 -1.390625 C 4.816406 -1.273438 5.394531 -1.21875 6.25 -1.21875 L 6.4375 -1.21875 C 6.632812 -1.21875 6.773438 -1.179688 6.859375 -1.109375 C 6.941406 -1.035156 6.992188 -0.859375 7.015625 -0.578125 C 7.015625 -0.398438 6.96875 -0.242188 6.875 -0.109375 C 6.78125 0.0234375 6.644531 0.09375 6.46875 0.09375 C 5.164062 0.03125 4.054688 0 3.140625 0 C 2.492188 0 1.507812 0.03125 0.1875 0.09375 Z M 5.984375 -7.40625 L 12.390625 -7.40625 L 9.296875 -15.25 L 9.21875 -15.25 Z M 5.984375 -7.40625 "/></g></g></g></g><g fill="#be9d5d" fill-opacity="1"><g transform="translate(28.675338, 27.716608)"><g><path d="M 1.859375 0.09375 C 1.679688 0.09375 1.546875 0.0234375 1.453125 -0.109375 C 1.359375 -0.242188 1.3125 -0.398438 1.3125 -0.578125 C 1.332031 -0.878906 1.390625 -1.0625 1.484375 -1.125 C 1.585938 -1.1875 1.785156 -1.21875 2.078125 -1.21875 C 2.660156 -1.21875 3.09375 -1.320312 3.375 -1.53125 C 3.664062 -1.75 3.847656 -2.015625 3.921875 -2.328125 C 3.992188 -2.648438 4.039062 -3.0625 4.0625 -3.5625 L 4.0625 -15.640625 C 4.039062 -16.171875 3.992188 -16.585938 3.921875 -16.890625 C 3.847656 -17.203125 3.664062 -17.46875 3.375 -17.6875 C 3.09375 -17.914062 2.660156 -18.03125 2.078125 -18.03125 L 1.890625 -18.03125 C 1.691406 -18.03125 1.550781 -18.0625 1.46875 -18.125 C 1.382812 -18.195312 1.332031 -18.378906 1.3125 -18.671875 C 1.3125 -18.847656 1.359375 -19.003906 1.453125 -19.140625 C 1.546875 -19.273438 1.679688 -19.34375 1.859375 -19.34375 C 3.179688 -19.28125 4.390625 -19.25 5.484375 -19.25 L 10.734375 -19.25 C 12.296875 -19.226562 13.597656 -18.976562 14.640625 -18.5 C 15.691406 -18.019531 16.460938 -17.410156 16.953125 -16.671875 C 17.441406 -15.929688 17.6875 -15.132812 17.6875 -14.28125 C 17.6875 -13.15625 17.242188 -12.125 16.359375 -11.1875 C 15.472656 -10.257812 14.269531 -9.59375 12.75 -9.1875 L 13.265625 -8.359375 C 14.117188 -6.972656 14.890625 -5.785156 15.578125 -4.796875 C 16.273438 -3.816406 17.03125 -2.898438 17.84375 -2.046875 C 18.414062 -1.578125 19.023438 -1.300781 19.671875 -1.21875 C 19.710938 -1.21875 19.800781 -1.210938 19.9375 -1.203125 C 20.082031 -1.191406 20.203125 -1.132812 20.296875 -1.03125 C 20.390625 -0.9375 20.4375 -0.785156 20.4375 -0.578125 C 20.4375 -0.398438 20.390625 -0.242188 20.296875 -0.109375 C 20.203125 0.0234375 20.066406 0.09375 19.890625 0.09375 L 19.09375 0.0625 C 18.195312 0.0195312 17.546875 0 17.140625 0 C 16.328125 -0.164062 15.628906 -0.457031 15.046875 -0.875 C 14.472656 -1.289062 13.898438 -1.882812 13.328125 -2.65625 C 12.734375 -3.425781 11.910156 -4.6875 10.859375 -6.4375 L 10.3125 -7.3125 C 10 -7.78125 9.703125 -8.101562 9.421875 -8.28125 C 9.140625 -8.457031 8.648438 -8.546875 7.953125 -8.546875 L 7.078125 -8.546875 L 7.078125 -3.5625 C 7.097656 -3.0625 7.140625 -2.648438 7.203125 -2.328125 C 7.273438 -2.015625 7.453125 -1.75 7.734375 -1.53125 C 8.023438 -1.320312 8.46875 -1.21875 9.0625 -1.21875 L 9.234375 -1.21875 C 9.421875 -1.21875 9.5625 -1.179688 9.65625 -1.109375 C 9.75 -1.035156 9.804688 -0.859375 9.828125 -0.578125 C 9.828125 -0.398438 9.78125 -0.242188 9.6875 -0.109375 C 9.59375 0.0234375 9.453125 0.09375 9.265625 0.09375 C 7.960938 0.03125 6.691406 0 5.453125 0 C 4.378906 0 3.179688 0.03125 1.859375 0.09375 Z M 9.765625 -9.734375 C 12.785156 -9.734375 14.296875 -11.15625 14.296875 -14 C 14.296875 -15.15625 13.898438 -16.128906 13.109375 -16.921875 C 12.316406 -17.710938 11.019531 -18.109375 9.21875 -18.109375 C 8.625 -18.109375 8.171875 -18.035156 7.859375 -17.890625 C 7.554688 -17.753906 7.347656 -17.515625 7.234375 -17.171875 C 7.128906 -16.828125 7.078125 -16.296875 7.078125 -15.578125 L 7.078125 -9.734375 Z M 9.765625 -9.734375 "/></g></g></g><g fill="#be9d5d" fill-opacity="1"><g transform="translate(56.574389, 27.716608)"><g><path d="M 1.859375 0.09375 C 1.679688 0.09375 1.546875 0.0234375 1.453125 -0.109375 C 1.359375 -0.242188 1.3125 -0.398438 1.3125 -0.578125 C 1.332031 -0.878906 1.390625 -1.0625 1.484375 -1.125 C 1.585938 -1.1875 1.785156 -1.21875 2.078125 -1.21875 C 2.660156 -1.21875 3.09375 -1.320312 3.375 -1.53125 C 3.664062 -1.75 3.847656 -2.015625 3.921875 -2.328125 C 3.992188 -2.648438 4.039062 -3.0625 4.0625 -3.5625 L 4.0625 -15.640625 C 4.039062 -16.171875 3.992188 -16.585938 3.921875 -16.890625 C 3.847656 -17.203125 3.664062 -17.46875 3.375 -17.6875 C 3.09375 -17.914062 2.660156 -18.03125 2.078125 -18.03125 L 1.890625 -18.03125 C 1.691406 -18.03125 1.550781 -18.0625 1.46875 -18.125 C 1.382812 -18.195312 1.332031 -18.378906 1.3125 -18.671875 C 1.3125 -18.847656 1.359375 -19.003906 1.453125 -19.140625 C 1.546875 -19.273438 1.679688 -19.34375 1.859375 -19.34375 C 3.179688 -19.28125 4.390625 -19.25 5.484375 -19.25 L 10.734375 -19.25 C 12.296875 -19.226562 13.597656 -18.976562 14.640625 -18.5 C 15.691406 -18.019531 16.460938 -17.410156 16.953125 -16.671875 C 17.441406 -15.929688 17.6875 -15.132812 17.6875 -14.28125 C 17.6875 -13.15625 17.242188 -12.125 16.359375 -11.1875 C 15.472656 -10.257812 14.269531 -9.59375 12.75 -9.1875 L 13.265625 -8.359375 C 14.117188 -6.972656 14.890625 -5.785156 15.578125 -4.796875 C 16.273438 -3.816406 17.03125 -2.898438 17.84375 -2.046875 C 18.414062 -1.578125 19.023438 -1.300781 19.671875 -1.21875 C 19.710938 -1.21875 19.800781 -1.210938 19.9375 -1.203125 C 20.082031 -1.191406 20.203125 -1.132812 20.296875 -1.03125 C 20.390625 -0.9375 20.4375 -0.785156 20.4375 -0.578125 C 20.4375 -0.398438 20.390625 -0.242188 20.296875 -0.109375 C 20.203125 0.0234375 20.066406 0.09375 19.890625 0.09375 L 19.09375 0.0625 C 18.195312 0.0195312 17.546875 0 17.140625 0 C 16.328125 -0.164062 15.628906 -0.457031 15.046875 -0.875 C 14.472656 -1.289062 13.898438 -1.882812 13.328125 -2.65625 C 12.734375 -3.425781 11.910156 -4.6875 10.859375 -6.4375 L 10.3125 -7.3125 C 10 -7.78125 9.703125 -8.101562 9.421875 -8.28125 C 9.140625 -8.457031 8.648438 -8.546875 7.953125 -8.546875 L 7.078125 -8.546875 L 7.078125 -3.5625 C 7.097656 -3.0625 7.140625 -2.648438 7.203125 -2.328125 C 7.273438 -2.015625 7.453125 -1.75 7.734375 -1.53125 C 8.023438 -1.320312 8.46875 -1.21875 9.0625 -1.21875 L 9.234375 -1.21875 C 9.421875 -1.21875 9.5625 -1.179688 9.65625 -1.109375 C 9.75 -1.035156 9.804688 -0.859375 9.828125 -0.578125 C 9.828125 -0.398438 9.78125 -0.242188 9.6875 -0.109375 C 9.59375 0.0234375 9.453125 0.09375 9.265625 0.09375 C 7.960938 0.03125 6.691406 0 5.453125 0 C 4.378906 0 3.179688 0.03125 1.859375 0.09375 Z M 9.765625 -9.734375 C 12.785156 -9.734375 14.296875 -11.15625 14.296875 -14 C 14.296875 -15.15625 13.898438 -16.128906 13.109375 -16.921875 C 12.316406 -17.710938 11.019531 -18.109375 9.21875 -18.109375 C 8.625 -18.109375 8.171875 -18.035156 7.859375 -17.890625 C 7.554688 -17.753906 7.347656 -17.515625 7.234375 -17.171875 C 7.128906 -16.828125 7.078125 -16.296875 7.078125 -15.578125 L 7.078125 -9.734375 Z M 9.765625 -9.734375 "/></g></g></g><g fill="#be9d5d" fill-opacity="1"><g transform="translate(84.47344, 27.716608)"><g><path d="M 1.828125 0.09375 C 1.648438 0.09375 1.515625 0.0234375 1.421875 -0.109375 C 1.328125 -0.242188 1.28125 -0.398438 1.28125 -0.578125 C 1.300781 -0.878906 1.363281 -1.0625 1.46875 -1.125 C 1.582031 -1.1875 1.773438 -1.21875 2.046875 -1.21875 C 2.628906 -1.21875 3.0625 -1.320312 3.34375 -1.53125 C 3.632812 -1.75 3.820312 -2.007812 3.90625 -2.3125 C 3.988281 -2.625 4.039062 -3.039062 4.0625 -3.5625 L 4.0625 -15.671875 C 4.039062 -16.203125 3.988281 -16.617188 3.90625 -16.921875 C 3.820312 -17.234375 3.632812 -17.492188 3.34375 -17.703125 C 3.0625 -17.921875 2.628906 -18.03125 2.046875 -18.03125 L 1.859375 -18.03125 C 1.679688 -18.03125 1.546875 -18.0625 1.453125 -18.125 C 1.359375 -18.195312 1.300781 -18.378906 1.28125 -18.671875 C 1.28125 -18.847656 1.328125 -19.003906 1.421875 -19.140625 C 1.515625 -19.273438 1.648438 -19.34375 1.828125 -19.34375 C 3.148438 -19.28125 4.359375 -19.25 5.453125 -19.25 C 6.679688 -19.25 7.953125 -19.28125 9.265625 -19.34375 C 9.453125 -19.34375 9.59375 -19.273438 9.6875 -19.140625 C 9.78125 -19.003906 9.828125 -18.847656 9.828125 -18.671875 C 9.804688 -18.359375 9.738281 -18.171875 9.625 -18.109375 C 9.507812 -18.054688 9.3125 -18.03125 9.03125 -18.03125 C 8.4375 -18.03125 8 -17.921875 7.71875 -17.703125 C 7.4375 -17.492188 7.257812 -17.226562 7.1875 -16.90625 C 7.113281 -16.59375 7.066406 -16.179688 7.046875 -15.671875 L 7.046875 -3.5625 C 7.066406 -3.0625 7.113281 -2.648438 7.1875 -2.328125 C 7.257812 -2.015625 7.4375 -1.75 7.71875 -1.53125 C 8 -1.320312 8.4375 -1.21875 9.03125 -1.21875 L 9.21875 -1.21875 C 9.414062 -1.21875 9.5625 -1.179688 9.65625 -1.109375 C 9.75 -1.035156 9.804688 -0.859375 9.828125 -0.578125 C 9.828125 -0.398438 9.78125 -0.242188 9.6875 -0.109375 C 9.59375 0.0234375 9.453125 0.09375 9.265625 0.09375 C 7.960938 0.03125 6.703125 0 5.484375 0 C 4.367188 0 3.148438 0.03125 1.828125 0.09375 Z M 1.828125 0.09375 "/></g></g></g><g fill="#be9d5d" fill-opacity="1"><g transform="translate(103.012692, 27.716608)"><g><path d="M 1.828125 0.09375 C 1.671875 0.09375 1.546875 0.0234375 1.453125 -0.109375 C 1.359375 -0.242188 1.3125 -0.398438 1.3125 -0.578125 C 1.332031 -0.878906 1.390625 -1.0625 1.484375 -1.125 C 1.585938 -1.1875 1.785156 -1.21875 2.078125 -1.21875 C 2.660156 -1.21875 3.09375 -1.320312 3.375 -1.53125 C 3.664062 -1.75 3.847656 -2.015625 3.921875 -2.328125 C 3.992188 -2.648438 4.039062 -3.0625 4.0625 -3.5625 L 4.0625 -15.671875 C 4.039062 -16.179688 3.992188 -16.59375 3.921875 -16.90625 C 3.847656 -17.226562 3.664062 -17.492188 3.375 -17.703125 C 3.09375 -17.921875 2.660156 -18.03125 2.078125 -18.03125 L 1.890625 -18.03125 C 1.691406 -18.03125 1.550781 -18.0625 1.46875 -18.125 C 1.382812 -18.195312 1.332031 -18.378906 1.3125 -18.671875 C 1.3125 -18.847656 1.359375 -19.003906 1.453125 -19.140625 C 1.546875 -19.273438 1.671875 -19.34375 1.828125 -19.34375 C 3.171875 -19.28125 4.378906 -19.25 5.453125 -19.25 L 15.03125 -19.25 C 15.5625 -19.25 15.828125 -19.003906 15.828125 -18.515625 L 15.921875 -14.25 C 15.921875 -14.0625 15.828125 -13.910156 15.640625 -13.796875 C 15.460938 -13.691406 15.28125 -13.640625 15.09375 -13.640625 C 14.851562 -13.640625 14.640625 -13.679688 14.453125 -13.765625 C 14.273438 -13.859375 14.175781 -14 14.15625 -14.1875 C 13.988281 -15.175781 13.804688 -15.929688 13.609375 -16.453125 C 13.421875 -16.972656 13.140625 -17.359375 12.765625 -17.609375 C 12.390625 -17.867188 11.851562 -18.007812 11.15625 -18.03125 L 7.078125 -18.03125 L 7.078125 -10.28125 L 12.59375 -10.28125 C 12.738281 -10.257812 12.847656 -10.179688 12.921875 -10.046875 C 13.003906 -9.910156 13.046875 -9.753906 13.046875 -9.578125 C 13.046875 -9.410156 13.003906 -9.265625 12.921875 -9.140625 C 12.847656 -9.023438 12.738281 -8.96875 12.59375 -8.96875 L 7.078125 -8.96875 L 7.078125 -3.203125 C 7.117188 -2.773438 7.164062 -2.429688 7.21875 -2.171875 C 7.28125 -1.921875 7.460938 -1.691406 7.765625 -1.484375 C 8.078125 -1.285156 8.5625 -1.195312 9.21875 -1.21875 L 12.015625 -1.21875 C 12.722656 -1.238281 13.257812 -1.351562 13.625 -1.5625 C 14 -1.78125 14.289062 -2.113281 14.5 -2.5625 C 14.71875 -3.007812 14.976562 -3.742188 15.28125 -4.765625 C 15.425781 -5.128906 15.769531 -5.269531 16.3125 -5.1875 C 16.519531 -5.144531 16.695312 -5.0625 16.84375 -4.9375 C 17 -4.820312 17.066406 -4.671875 17.046875 -4.484375 L 16.4375 -0.640625 C 16.375 -0.378906 16.28125 -0.207031 16.15625 -0.125 C 16.039062 -0.0390625 15.84375 0 15.5625 0 L 5.484375 0 C 4.390625 0 3.171875 0.03125 1.828125 0.09375 Z M 1.828125 0.09375 "/></g></g></g><g fill="#be9d5d" fill-opacity="1"><g transform="translate(128.564165, 27.716608)"><g><path d="M 1.890625 0.09375 C 1.703125 0.09375 1.5625 0.0234375 1.46875 -0.109375 C 1.382812 -0.242188 1.34375 -0.398438 1.34375 -0.578125 C 1.363281 -0.878906 1.421875 -1.0625 1.515625 -1.125 C 1.617188 -1.1875 1.816406 -1.21875 2.109375 -1.21875 C 2.691406 -1.21875 3.117188 -1.320312 3.390625 -1.53125 C 3.671875 -1.75 3.84375 -2.003906 3.90625 -2.296875 C 3.96875 -2.597656 4.007812 -3.019531 4.03125 -3.5625 L 4.09375 -15.671875 C 4.09375 -16.285156 4.023438 -16.75 3.890625 -17.0625 C 3.753906 -17.375 3.546875 -17.601562 3.265625 -17.75 C 2.984375 -17.894531 2.578125 -18.015625 2.046875 -18.109375 C 1.703125 -18.171875 1.488281 -18.234375 1.40625 -18.296875 C 1.320312 -18.359375 1.28125 -18.53125 1.28125 -18.8125 C 1.28125 -19.0625 1.34375 -19.222656 1.46875 -19.296875 C 1.601562 -19.378906 1.816406 -19.421875 2.109375 -19.421875 C 3.367188 -19.421875 4.363281 -19.332031 5.09375 -19.15625 C 5.820312 -18.988281 6.46875 -18.679688 7.03125 -18.234375 C 7.59375 -17.785156 8.207031 -17.109375 8.875 -16.203125 L 17.234375 -5.21875 L 17.328125 -5.21875 L 17.265625 -15.671875 C 17.242188 -16.222656 17.203125 -16.644531 17.140625 -16.9375 C 17.078125 -17.238281 16.90625 -17.492188 16.625 -17.703125 C 16.351562 -17.921875 15.925781 -18.03125 15.34375 -18.03125 L 15.15625 -18.03125 C 14.957031 -18.03125 14.8125 -18.0625 14.71875 -18.125 C 14.625 -18.195312 14.566406 -18.378906 14.546875 -18.671875 C 14.546875 -18.847656 14.597656 -19.003906 14.703125 -19.140625 C 14.804688 -19.273438 14.9375 -19.34375 15.09375 -19.34375 C 16.394531 -19.28125 17.375 -19.25 18.03125 -19.25 C 18.414062 -19.25 19.15625 -19.269531 20.25 -19.3125 L 20.890625 -19.34375 C 21.078125 -19.34375 21.210938 -19.273438 21.296875 -19.140625 C 21.390625 -19.003906 21.4375 -18.847656 21.4375 -18.671875 C 21.414062 -18.359375 21.351562 -18.171875 21.25 -18.109375 C 21.15625 -18.054688 20.960938 -18.03125 20.671875 -18.03125 C 20.085938 -18.03125 19.65625 -17.921875 19.375 -17.703125 C 19.101562 -17.492188 18.9375 -17.238281 18.875 -16.9375 C 18.8125 -16.644531 18.769531 -16.222656 18.75 -15.671875 L 18.703125 -0.3125 C 18.679688 -0.0390625 18.425781 0.09375 17.9375 0.09375 C 17.550781 0.09375 17.253906 -0.0390625 17.046875 -0.3125 L 5.546875 -15.671875 L 5.453125 -15.671875 L 5.515625 -3.5625 C 5.535156 -3.019531 5.578125 -2.597656 5.640625 -2.296875 C 5.703125 -2.003906 5.867188 -1.75 6.140625 -1.53125 C 6.421875 -1.320312 6.851562 -1.21875 7.4375 -1.21875 L 7.625 -1.21875 C 7.832031 -1.21875 7.976562 -1.179688 8.0625 -1.109375 C 8.15625 -1.035156 8.210938 -0.859375 8.234375 -0.578125 C 8.234375 -0.398438 8.1875 -0.242188 8.09375 -0.109375 C 8 0.0234375 7.863281 0.09375 7.6875 0.09375 C 6.382812 0.03125 5.398438 0 4.734375 0 C 4.328125 0 3.613281 0.0195312 2.59375 0.0625 Z M 1.890625 0.09375 "/></g></g></g><g fill="#be9d5d" fill-opacity="1"><g transform="translate(158.475415, 27.716608)"><g><path d="M 1.828125 0.09375 C 1.671875 0.09375 1.546875 0.0234375 1.453125 -0.109375 C 1.359375 -0.242188 1.3125 -0.398438 1.3125 -0.578125 C 1.332031 -0.878906 1.390625 -1.0625 1.484375 -1.125 C 1.585938 -1.1875 1.785156 -1.21875 2.078125 -1.21875 C 2.660156 -1.21875 3.09375 -1.320312 3.375 -1.53125 C 3.664062 -1.75 3.847656 -2.015625 3.921875 -2.328125 C 3.992188 -2.648438 4.039062 -3.0625 4.0625 -3.5625 L 4.0625 -15.671875 C 4.039062 -16.179688 3.992188 -16.59375 3.921875 -16.90625 C 3.847656 -17.226562 3.664062 -17.492188 3.375 -17.703125 C 3.09375 -17.921875 2.660156 -18.03125 2.078125 -18.03125 L 1.890625 -18.03125 C 1.691406 -18.03125 1.550781 -18.0625 1.46875 -18.125 C 1.382812 -18.195312 1.332031 -18.378906 1.3125 -18.671875 C 1.3125 -18.847656 1.359375 -19.003906 1.453125 -19.140625 C 1.546875 -19.273438 1.671875 -19.34375 1.828125 -19.34375 C 3.171875 -19.28125 4.378906 -19.25 5.453125 -19.25 L 10.21875 -19.25 C 12.164062 -19.25 13.9375 -18.851562 15.53125 -18.0625 C 17.132812 -17.28125 18.394531 -16.15625 19.3125 -14.6875 C 20.238281 -13.226562 20.703125 -11.503906 20.703125 -9.515625 C 20.703125 -7.441406 20.175781 -5.6875 19.125 -4.25 C 18.082031 -2.820312 16.722656 -1.753906 15.046875 -1.046875 C 13.367188 -0.347656 11.578125 0 9.671875 0 L 5.453125 0 C 4.378906 0 3.171875 0.03125 1.828125 0.09375 Z M 10.125 -1.125 C 12.5 -1.125 14.238281 -1.859375 15.34375 -3.328125 C 16.457031 -4.804688 17.015625 -6.867188 17.015625 -9.515625 C 17.015625 -11.179688 16.710938 -12.671875 16.109375 -13.984375 C 15.515625 -15.296875 14.644531 -16.316406 13.5 -17.046875 C 12.363281 -17.773438 11.015625 -18.140625 9.453125 -18.140625 L 7.078125 -18.109375 L 7.078125 -3.203125 C 7.078125 -2.410156 7.316406 -1.863281 7.796875 -1.5625 C 8.273438 -1.269531 9.050781 -1.125 10.125 -1.125 Z M 10.125 -1.125 "/></g></g></g><g fill="#be9d5d" fill-opacity="1"><g transform="translate(188.112281, 27.716608)"><g><path d="M 0.1875 0.09375 C 0 0.09375 -0.132812 0.0234375 -0.21875 -0.109375 C -0.3125 -0.242188 -0.359375 -0.398438 -0.359375 -0.578125 C -0.335938 -0.878906 -0.273438 -1.0625 -0.171875 -1.125 C -0.078125 -1.1875 0.0351562 -1.21875 0.171875 -1.21875 C 0.316406 -1.21875 0.410156 -1.21875 0.453125 -1.21875 C 1.066406 -1.21875 1.515625 -1.375 1.796875 -1.6875 C 2.078125 -2.007812 2.304688 -2.367188 2.484375 -2.765625 C 2.660156 -3.160156 2.78125 -3.425781 2.84375 -3.5625 L 8.171875 -16.203125 C 8.296875 -16.503906 8.359375 -16.742188 8.359375 -16.921875 C 8.359375 -17.285156 8.210938 -17.550781 7.921875 -17.71875 C 7.640625 -17.882812 7.242188 -18.015625 6.734375 -18.109375 C 6.390625 -18.171875 6.175781 -18.234375 6.09375 -18.296875 C 6.019531 -18.359375 5.984375 -18.53125 5.984375 -18.8125 C 5.984375 -19.0625 6.046875 -19.222656 6.171875 -19.296875 C 6.304688 -19.378906 6.515625 -19.421875 6.796875 -19.421875 C 7.816406 -19.421875 8.625 -19.34375 9.21875 -19.1875 C 9.820312 -19.039062 10.347656 -18.738281 10.796875 -18.28125 C 11.242188 -17.820312 11.660156 -17.128906 12.046875 -16.203125 L 17.171875 -3.5625 C 17.472656 -2.789062 17.765625 -2.210938 18.046875 -1.828125 C 18.335938 -1.441406 18.769531 -1.238281 19.34375 -1.21875 L 19.515625 -1.21875 C 19.722656 -1.21875 19.863281 -1.179688 19.9375 -1.109375 C 20.019531 -1.035156 20.070312 -0.859375 20.09375 -0.578125 C 20.09375 -0.398438 20.046875 -0.242188 19.953125 -0.109375 C 19.867188 0.0234375 19.734375 0.09375 19.546875 0.09375 C 18.242188 0.03125 17.128906 0 16.203125 0 C 14.972656 0 13.707031 0.03125 12.40625 0.09375 C 12.226562 0.09375 12.09375 0.0234375 12 -0.109375 C 11.90625 -0.242188 11.859375 -0.398438 11.859375 -0.578125 C 11.878906 -0.859375 11.929688 -1.035156 12.015625 -1.109375 C 12.097656 -1.179688 12.238281 -1.21875 12.4375 -1.21875 C 13.132812 -1.21875 13.625 -1.28125 13.90625 -1.40625 C 14.1875 -1.539062 14.328125 -1.785156 14.328125 -2.140625 C 14.328125 -2.398438 14.207031 -2.875 13.96875 -3.5625 L 12.9375 -6.09375 L 5.40625 -6.09375 C 4.894531 -4.832031 4.601562 -4.097656 4.53125 -3.890625 C 4.457031 -3.691406 4.421875 -3.582031 4.421875 -3.5625 C 4.179688 -2.789062 4.0625 -2.296875 4.0625 -2.078125 C 4.0625 -1.734375 4.210938 -1.503906 4.515625 -1.390625 C 4.816406 -1.273438 5.394531 -1.21875 6.25 -1.21875 L 6.4375 -1.21875 C 6.632812 -1.21875 6.773438 -1.179688 6.859375 -1.109375 C 6.941406 -1.035156 6.992188 -0.859375 7.015625 -0.578125 C 7.015625 -0.398438 6.96875 -0.242188 6.875 -0.109375 C 6.78125 0.0234375 6.644531 0.09375 6.46875 0.09375 C 5.164062 0.03125 4.054688 0 3.140625 0 C 2.492188 0 1.507812 0.03125 0.1875 0.09375 Z M 5.984375 -7.40625 L 12.390625 -7.40625 L 9.296875 -15.25 L 9.21875 -15.25 Z M 5.984375 -7.40625 "/></g></g></g></g></g><g transform="matrix(1, 0, 0, 1, 227, 99)"><g clip-path="url(#3b12a8b203)"><g fill="#000000" fill-opacity="1"><g transform="translate(1.55521, 28.135591)"><g><path d="M 1.828125 0.09375 C 1.671875 0.09375 1.546875 0.0234375 1.453125 -0.109375 C 1.359375 -0.242188 1.3125 -0.398438 1.3125 -0.578125 C 1.332031 -0.878906 1.390625 -1.0625 1.484375 -1.125 C 1.585938 -1.1875 1.785156 -1.21875 2.078125 -1.21875 C 2.660156 -1.21875 3.09375 -1.320312 3.375 -1.53125 C 3.664062 -1.75 3.847656 -2.015625 3.921875 -2.328125 C 3.992188 -2.648438 4.039062 -3.0625 4.0625 -3.5625 L 4.0625 -15.671875 C 4.039062 -16.179688 3.992188 -16.59375 3.921875 -16.90625 C 3.847656 -17.226562 3.664062 -17.492188 3.375 -17.703125 C 3.09375 -17.921875 2.660156 -18.03125 2.078125 -18.03125 L 1.890625 -18.03125 C 1.691406 -18.03125 1.550781 -18.0625 1.46875 -18.125 C 1.382812 -18.195312 1.332031 -18.378906 1.3125 -18.671875 C 1.3125 -18.847656 1.359375 -19.003906 1.453125 -19.140625 C 1.546875 -19.273438 1.671875 -19.34375 1.828125 -19.34375 C 3.148438 -19.28125 4.359375 -19.25 5.453125 -19.25 L 14.28125 -19.25 C 14.800781 -19.25 15.0625 -19.003906 15.0625 -18.515625 L 15.15625 -14.25 C 15.15625 -14.0625 15.0625 -13.910156 14.875 -13.796875 C 14.695312 -13.691406 14.515625 -13.640625 14.328125 -13.640625 C 14.085938 -13.640625 13.867188 -13.679688 13.671875 -13.765625 C 13.484375 -13.859375 13.378906 -14 13.359375 -14.1875 C 13.210938 -15.175781 13.039062 -15.929688 12.84375 -16.453125 C 12.65625 -16.972656 12.375 -17.359375 12 -17.609375 C 11.625 -17.867188 11.09375 -18.007812 10.40625 -18.03125 L 7.078125 -18.03125 L 7.078125 -10.09375 L 12.53125 -10.09375 C 12.695312 -10.070312 12.820312 -9.992188 12.90625 -9.859375 C 12.988281 -9.734375 13.03125 -9.578125 13.03125 -9.390625 C 13.03125 -9.234375 12.988281 -9.09375 12.90625 -8.96875 C 12.820312 -8.84375 12.695312 -8.78125 12.53125 -8.78125 L 7.078125 -8.78125 L 7.078125 -3.5625 C 7.097656 -3.0625 7.140625 -2.648438 7.203125 -2.328125 C 7.273438 -2.015625 7.453125 -1.75 7.734375 -1.53125 C 8.023438 -1.320312 8.46875 -1.21875 9.0625 -1.21875 L 9.234375 -1.21875 C 9.421875 -1.21875 9.5625 -1.179688 9.65625 -1.109375 C 9.75 -1.035156 9.804688 -0.859375 9.828125 -0.578125 C 9.828125 -0.398438 9.78125 -0.242188 9.6875 -0.109375 C 9.59375 0.0234375 9.453125 0.09375 9.265625 0.09375 C 7.960938 0.03125 6.703125 0 5.484375 0 C 4.367188 0 3.148438 0.03125 1.828125 0.09375 Z M 1.828125 0.09375 "/></g></g></g><g fill="#000000" fill-opacity="1"><g transform="translate(25.003016, 28.135591)"><g><path d="M 0.1875 0.09375 C 0 0.09375 -0.132812 0.0234375 -0.21875 -0.109375 C -0.3125 -0.242188 -0.359375 -0.398438 -0.359375 -0.578125 C -0.335938 -0.878906 -0.273438 -1.0625 -0.171875 -1.125 C -0.078125 -1.1875 0.0351562 -1.21875 0.171875 -1.21875 C 0.316406 -1.21875 0.410156 -1.21875 0.453125 -1.21875 C 1.066406 -1.21875 1.515625 -1.375 1.796875 -1.6875 C 2.078125 -2.007812 2.304688 -2.367188 2.484375 -2.765625 C 2.660156 -3.160156 2.78125 -3.425781 2.84375 -3.5625 L 8.171875 -16.203125 C 8.296875 -16.503906 8.359375 -16.742188 8.359375 -16.921875 C 8.359375 -17.285156 8.210938 -17.550781 7.921875 -17.71875 C 7.640625 -17.882812 7.242188 -18.015625 6.734375 -18.109375 C 6.390625 -18.171875 6.175781 -18.234375 6.09375 -18.296875 C 6.019531 -18.359375 5.984375 -18.53125 5.984375 -18.8125 C 5.984375 -19.0625 6.046875 -19.222656 6.171875 -19.296875 C 6.304688 -19.378906 6.515625 -19.421875 6.796875 -19.421875 C 7.816406 -19.421875 8.625 -19.34375 9.21875 -19.1875 C 9.820312 -19.039062 10.347656 -18.738281 10.796875 -18.28125 C 11.242188 -17.820312 11.660156 -17.128906 12.046875 -16.203125 L 17.171875 -3.5625 C 17.472656 -2.789062 17.765625 -2.210938 18.046875 -1.828125 C 18.335938 -1.441406 18.769531 -1.238281 19.34375 -1.21875 L 19.515625 -1.21875 C 19.722656 -1.21875 19.863281 -1.179688 19.9375 -1.109375 C 20.019531 -1.035156 20.070312 -0.859375 20.09375 -0.578125 C 20.09375 -0.398438 20.046875 -0.242188 19.953125 -0.109375 C 19.867188 0.0234375 19.734375 0.09375 19.546875 0.09375 C 18.242188 0.03125 17.128906 0 16.203125 0 C 14.972656 0 13.707031 0.03125 12.40625 0.09375 C 12.226562 0.09375 12.09375 0.0234375 12 -0.109375 C 11.90625 -0.242188 11.859375 -0.398438 11.859375 -0.578125 C 11.878906 -0.859375 11.929688 -1.035156 12.015625 -1.109375 C 12.097656 -1.179688 12.238281 -1.21875 12.4375 -1.21875 C 13.132812 -1.21875 13.625 -1.28125 13.90625 -1.40625 C 14.1875 -1.539062 14.328125 -1.785156 14.328125 -2.140625 C 14.328125 -2.398438 14.207031 -2.875 13.96875 -3.5625 L 12.9375 -6.09375 L 5.40625 -6.09375 C 4.894531 -4.832031 4.601562 -4.097656 4.53125 -3.890625 C 4.457031 -3.691406 4.421875 -3.582031 4.421875 -3.5625 C 4.179688 -2.789062 4.0625 -2.296875 4.0625 -2.078125 C 4.0625 -1.734375 4.210938 -1.503906 4.515625 -1.390625 C 4.816406 -1.273438 5.394531 -1.21875 6.25 -1.21875 L 6.4375 -1.21875 C 6.632812 -1.21875 6.773438 -1.179688 6.859375 -1.109375 C 6.941406 -1.035156 6.992188 -0.859375 7.015625 -0.578125 C 7.015625 -0.398438 6.96875 -0.242188 6.875 -0.109375 C 6.78125 0.0234375 6.644531 0.09375 6.46875 0.09375 C 5.164062 0.03125 4.054688 0 3.140625 0 C 2.492188 0 1.507812 0.03125 0.1875 0.09375 Z M 5.984375 -7.40625 L 12.390625 -7.40625 L 9.296875 -15.25 L 9.21875 -15.25 Z M 5.984375 -7.40625 "/></g></g></g><g fill="#000000" fill-opacity="1"><g transform="translate(52.353276, 28.135591)"><g><path d="M 10.921875 0.609375 C 9.191406 0.609375 7.609375 0.195312 6.171875 -0.625 C 4.742188 -1.445312 3.609375 -2.617188 2.765625 -4.140625 C 1.921875 -5.671875 1.5 -7.453125 1.5 -9.484375 C 1.5 -11.535156 1.90625 -13.34375 2.71875 -14.90625 C 3.53125 -16.476562 4.6875 -17.695312 6.1875 -18.5625 C 7.695312 -19.425781 9.457031 -19.859375 11.46875 -19.859375 C 13.21875 -19.859375 14.769531 -19.503906 16.125 -18.796875 C 17.488281 -18.097656 18.171875 -17.019531 18.171875 -15.5625 C 18.191406 -14.644531 17.914062 -13.863281 17.34375 -13.21875 C 16.78125 -12.582031 16.019531 -12.265625 15.0625 -12.265625 C 14.695312 -12.265625 14.382812 -12.328125 14.125 -12.453125 C 13.875 -12.585938 13.6875 -12.742188 13.5625 -12.921875 C 13.445312 -13.109375 13.398438 -13.253906 13.421875 -13.359375 C 13.421875 -13.398438 13.5625 -13.507812 13.84375 -13.6875 C 14.132812 -13.875 14.390625 -14.128906 14.609375 -14.453125 C 14.828125 -14.773438 14.9375 -15.171875 14.9375 -15.640625 C 14.9375 -16.554688 14.625 -17.285156 14 -17.828125 C 13.382812 -18.367188 12.53125 -18.640625 11.4375 -18.640625 C 10.195312 -18.640625 9.09375 -18.285156 8.125 -17.578125 C 7.15625 -16.878906 6.398438 -15.851562 5.859375 -14.5 C 5.328125 -13.144531 5.0625 -11.535156 5.0625 -9.671875 C 5.0625 -8.046875 5.347656 -6.566406 5.921875 -5.234375 C 6.503906 -3.898438 7.320312 -2.84375 8.375 -2.0625 C 9.4375 -1.28125 10.648438 -0.890625 12.015625 -0.890625 C 13.109375 -0.890625 14.046875 -1.113281 14.828125 -1.5625 C 15.617188 -2.019531 16.328125 -2.757812 16.953125 -3.78125 C 17.054688 -3.96875 17.203125 -4.0625 17.390625 -4.0625 C 17.546875 -4.0625 17.726562 -4 17.9375 -3.875 C 18.257812 -3.644531 18.421875 -3.421875 18.421875 -3.203125 C 18.421875 -3.078125 18.378906 -2.972656 18.296875 -2.890625 C 17.523438 -1.921875 16.796875 -1.1875 16.109375 -0.6875 C 15.429688 -0.1875 14.695312 0.148438 13.90625 0.328125 C 13.113281 0.515625 12.117188 0.609375 10.921875 0.609375 Z M 10.921875 0.609375 "/></g></g></g><g fill="#000000" fill-opacity="1"><g transform="translate(79.276713, 28.135591)"><g><path d="M 1.828125 0.09375 C 1.648438 0.09375 1.515625 0.0234375 1.421875 -0.109375 C 1.328125 -0.242188 1.28125 -0.398438 1.28125 -0.578125 C 1.300781 -0.878906 1.363281 -1.0625 1.46875 -1.125 C 1.582031 -1.1875 1.773438 -1.21875 2.046875 -1.21875 C 2.628906 -1.21875 3.0625 -1.320312 3.34375 -1.53125 C 3.632812 -1.75 3.820312 -2.007812 3.90625 -2.3125 C 3.988281 -2.625 4.039062 -3.039062 4.0625 -3.5625 L 4.0625 -15.671875 C 4.039062 -16.203125 3.988281 -16.617188 3.90625 -16.921875 C 3.820312 -17.234375 3.632812 -17.492188 3.34375 -17.703125 C 3.0625 -17.921875 2.628906 -18.03125 2.046875 -18.03125 L 1.859375 -18.03125 C 1.679688 -18.03125 1.546875 -18.0625 1.453125 -18.125 C 1.359375 -18.195312 1.300781 -18.378906 1.28125 -18.671875 C 1.28125 -18.847656 1.328125 -19.003906 1.421875 -19.140625 C 1.515625 -19.273438 1.648438 -19.34375 1.828125 -19.34375 C 3.148438 -19.28125 4.359375 -19.25 5.453125 -19.25 C 6.679688 -19.25 7.953125 -19.28125 9.265625 -19.34375 C 9.453125 -19.34375 9.59375 -19.273438 9.6875 -19.140625 C 9.78125 -19.003906 9.828125 -18.847656 9.828125 -18.671875 C 9.804688 -18.359375 9.738281 -18.171875 9.625 -18.109375 C 9.507812 -18.054688 9.3125 -18.03125 9.03125 -18.03125 C 8.4375 -18.03125 8 -17.921875 7.71875 -17.703125 C 7.4375 -17.492188 7.257812 -17.226562 7.1875 -16.90625 C 7.113281 -16.59375 7.066406 -16.179688 7.046875 -15.671875 L 7.046875 -3.5625 C 7.066406 -3.0625 7.113281 -2.648438 7.1875 -2.328125 C 7.257812 -2.015625 7.4375 -1.75 7.71875 -1.53125 C 8 -1.320312 8.4375 -1.21875 9.03125 -1.21875 L 9.21875 -1.21875 C 9.414062 -1.21875 9.5625 -1.179688 9.65625 -1.109375 C 9.75 -1.035156 9.804688 -0.859375 9.828125 -0.578125 C 9.828125 -0.398438 9.78125 -0.242188 9.6875 -0.109375 C 9.59375 0.0234375 9.453125 0.09375 9.265625 0.09375 C 7.960938 0.03125 6.703125 0 5.484375 0 C 4.367188 0 3.148438 0.03125 1.828125 0.09375 Z M 1.828125 0.09375 "/></g></g></g><g fill="#000000" fill-opacity="1"><g transform="translate(97.815965, 28.135591)"><g><path d="M 1.828125 0.09375 C 1.671875 0.09375 1.546875 0.0234375 1.453125 -0.109375 C 1.359375 -0.242188 1.3125 -0.398438 1.3125 -0.578125 C 1.332031 -0.878906 1.390625 -1.0625 1.484375 -1.125 C 1.585938 -1.1875 1.785156 -1.21875 2.078125 -1.21875 C 2.660156 -1.21875 3.09375 -1.320312 3.375 -1.53125 C 3.664062 -1.75 3.847656 -2.015625 3.921875 -2.328125 C 3.992188 -2.648438 4.039062 -3.0625 4.0625 -3.5625 L 4.0625 -15.671875 C 4.039062 -16.179688 3.992188 -16.59375 3.921875 -16.90625 C 3.847656 -17.226562 3.664062 -17.492188 3.375 -17.703125 C 3.09375 -17.921875 2.660156 -18.03125 2.078125 -18.03125 L 1.890625 -18.03125 C 1.691406 -18.03125 1.550781 -18.0625 1.46875 -18.125 C 1.382812 -18.195312 1.332031 -18.378906 1.3125 -18.671875 C 1.3125 -18.847656 1.359375 -19.003906 1.453125 -19.140625 C 1.546875 -19.273438 1.671875 -19.34375 1.828125 -19.34375 C 3.171875 -19.28125 4.378906 -19.25 5.453125 -19.25 C 6.679688 -19.25 7.953125 -19.28125 9.265625 -19.34375 C 9.453125 -19.34375 9.59375 -19.273438 9.6875 -19.140625 C 9.78125 -19.003906 9.828125 -18.847656 9.828125 -18.671875 C 9.804688 -18.359375 9.738281 -18.171875 9.625 -18.109375 C 9.507812 -18.054688 9.320312 -18.03125 9.0625 -18.03125 C 8.46875 -18.03125 8.023438 -17.921875 7.734375 -17.703125 C 7.453125 -17.492188 7.273438 -17.226562 7.203125 -16.90625 C 7.140625 -16.59375 7.097656 -16.179688 7.078125 -15.671875 L 7.078125 -3.109375 C 7.117188 -2.679688 7.164062 -2.347656 7.21875 -2.109375 C 7.28125 -1.878906 7.460938 -1.664062 7.765625 -1.46875 C 8.078125 -1.28125 8.5625 -1.195312 9.21875 -1.21875 L 11.953125 -1.21875 C 12.671875 -1.238281 13.210938 -1.351562 13.578125 -1.5625 C 13.941406 -1.78125 14.226562 -2.113281 14.4375 -2.5625 C 14.65625 -3.007812 14.914062 -3.742188 15.21875 -4.765625 C 15.363281 -5.128906 15.707031 -5.269531 16.25 -5.1875 C 16.4375 -5.144531 16.609375 -5.0625 16.765625 -4.9375 C 16.929688 -4.820312 17.003906 -4.671875 16.984375 -4.484375 L 16.375 -0.640625 C 16.3125 -0.378906 16.21875 -0.207031 16.09375 -0.125 C 15.976562 -0.0390625 15.78125 0 15.5 0 L 5.484375 0 C 4.390625 0 3.171875 0.03125 1.828125 0.09375 Z M 1.828125 0.09375 "/></g></g></g></g></g></svg>